<svg height="512pt" viewBox="0 -40 512.00007 512" width="512pt" xmlns="http://www.w3.org/2000/svg"><path d="m508.871094 403.40625-45.984375-67.222656c-2.339844-3.417969-7.007813-4.292969-10.425781-1.953125-3.421876 2.335937-4.296876 7.007812-1.957032 10.425781l45.988282 67.21875c.847656 1.242188.46875 2.390625.167968 2.960938-.300781.574218-1.035156 1.535156-2.542968 1.535156h-113.054688c.734375-4.464844-.242188-9.105469-2.886719-12.964844l-34.332031-50.1875c-2.339844-3.417969-7.003906-4.292969-10.425781-1.953125-3.417969 2.335937-4.292969 7.003906-1.953125 10.421875l34.332031 50.1875c.851563 1.242188.472656 2.390625.167969 2.960938-.300782.574218-1.03125 1.535156-2.539063 1.535156h-345.542969c-1.511718 0-2.242187-.960938-2.542968-1.535156-.300782-.570313-.679688-1.714844.171875-2.960938l68.328125-99.882812c2.339844-3.417969 1.464844-8.085938-1.957032-10.425782-3.417968-2.335937-8.085937-1.460937-10.425781 1.957032l-68.328125 99.878906c-3.753906 5.488281-4.160156 12.550781-1.058594 18.433594 3.101563 5.882812 9.160157 9.535156 15.8125 9.535156h476.234376c6.652343 0 12.707031-3.652344 15.8125-9.535156 3.101562-5.882813 2.695312-12.945313-1.058594-18.429688zm0 0"/><path d="m175.902344 150.859375-84.609375 123.675781c-2.339844 3.417969-1.460938 8.085938 1.957031 10.421875 3.417969 2.339844 8.085938 1.464844 10.425781-1.953125l19.039063-27.835937c10.519531 6.082031 26.617187 8.890625 50.074218-1.839844 17.574219-8.046875 29.777344 1.148437 43.90625 11.804687 9.789063 7.382813 21.042969 15.867188 34.140626 15.867188 6.386718 0 13.214843-2.027344 20.519531-7.171875l40.277343 58.871094c1.453126 2.125 3.804688 3.265625 6.195313 3.265625 1.460937 0 2.933594-.421875 4.230469-1.308594 3.417968-2.339844 4.292968-7.007812 1.953125-10.425781l-19-27.777344 13.972656-20.425781c8.714844 8.535156 23.507813 15.648437 47.167969 7.8125 7.597656-2.515625 10.007812-.242188 16.453125 5.832031 1.972656 1.859375 4.207031 3.964844 6.796875 6.019531 6.316406 5.015625 16.765625 11.484375 35.652344 11.765625l5.617187 8.207031c1.453125 2.125 3.804687 3.269532 6.195313 3.269532 1.460937 0 2.933593-.425782 4.230468-1.3125 3.417969-2.339844 4.292969-7.007813 1.953125-10.425782l-7.90625-11.558593c-.027343-.039063-.054687-.082031-.085937-.125l-59.039063-86.296875c-3.332031-4.871094-8.847656-7.78125-14.75-7.78125-5.90625 0-11.417969 2.910156-14.753906 7.78125l-34.121094 49.878906c-.019531.027344-.039062.058594-.058593.085938l-16.414063 23.992187-90.515625-132.3125c-3.332031-4.875-8.851562-7.785156-14.753906-7.78125-5.902344-.003906-11.417969 2.90625-14.75 7.78125zm182.996094 66.824219c.742187-1.089844 1.804687-1.25 2.371093-1.25.566407 0 1.628907.160156 2.371094 1.25l50.332031 73.570312c-7.066406-1.574218-11.628906-4.445312-15.242187-7.3125-2.09375-1.660156-3.996094-3.453125-5.832031-5.1875-7.203126-6.789062-15.371094-14.488281-31.460938-9.15625-15.007812 4.972656-26.101562 2.921875-33.785156-6.246094zm-168.246094-59.609375c.566406 0 1.628906.164062 2.371094 1.253906l69.875 102.132813c-12.75 9.164062-21.648438 3.398437-37.171876-8.304688-14.910156-11.246094-33.476562-25.238281-59.179687-13.472656-14.5 6.636718-26.335937 7.632812-35.308594 3.027344l57.042969-83.382813c.746094-1.089844 1.804688-1.253906 2.371094-1.253906zm0 0"/><path d="m290.246094 124.949219c22.683594 0 41.136718-18.453125 41.136718-41.136719 0-22.6875-18.453124-41.140625-41.136718-41.140625-22.6875 0-41.140625 18.453125-41.140625 41.140625 0 22.683594 18.453125 41.136719 41.140625 41.136719zm0-67.273438c14.410156 0 26.136718 11.722657 26.136718 26.136719 0 14.410156-11.726562 26.136719-26.136718 26.136719-14.414063 0-26.140625-11.726563-26.140625-26.136719 0-14.414062 11.726562-26.136719 26.140625-26.136719zm0 0"/><path d="m290.246094 20.519531c4.140625 0 7.5-3.355469 7.5-7.5v-5.519531c0-4.144531-3.359375-7.5-7.5-7.5-4.144532 0-7.503906 3.355469-7.503906 7.5v5.519531c0 4.144531 3.359374 7.5 7.503906 7.5zm0 0"/><path d="m282.742188 154.605469v5.519531c0 4.140625 3.359374 7.5 7.503906 7.5 4.140625 0 7.5-3.359375 7.5-7.5v-5.519531c0-4.144531-3.359375-7.5-7.5-7.5-4.144532 0-7.503906 3.355469-7.503906 7.5zm0 0"/><path d="m340.300781 41.253906c1.921875 0 3.839844-.730468 5.304688-2.195312l3.902343-3.902344c2.929688-2.933594 2.929688-7.679688 0-10.609375-2.933593-2.929687-7.683593-2.925781-10.605468.003906l-3.902344 3.902344c-2.929688 2.929687-2.929688 7.675781 0 10.605469 1.464844 1.464844 3.382812 2.195312 5.300781 2.195312zm0 0"/><path d="m234.882812 128.566406-3.902343 3.902344c-2.929688 2.929688-2.929688 7.675781 0 10.605469 1.464843 1.464843 3.382812 2.199219 5.304687 2.199219 1.917969 0 3.835938-.734376 5.300782-2.199219l3.902343-3.902344c2.929688-2.925781 2.933594-7.675781.003907-10.605469-2.929688-2.929687-7.675782-2.929687-10.609376 0zm0 0"/><path d="m361.035156 91.3125h5.523438c4.140625 0 7.5-3.359375 7.5-7.5 0-4.144531-3.359375-7.5-7.5-7.5h-5.523438c-4.140625 0-7.5 3.355469-7.5 7.5 0 4.140625 3.359375 7.5 7.5 7.5zm0 0"/><path d="m213.933594 91.3125h5.519531c4.144531 0 7.5-3.359375 7.5-7.5 0-4.144531-3.355469-7.5-7.5-7.5h-5.519531c-4.144532 0-7.5 3.355469-7.5 7.5 0 4.140625 3.355468 7.5 7.5 7.5zm0 0"/><path d="m338.902344 143.074219c1.464844 1.464843 3.382812 2.199219 5.300781 2.199219 1.921875 0 3.839844-.734376 5.304687-2.199219 2.929688-2.929688 2.929688-7.675781 0-10.605469l-3.902343-3.902344c-2.929688-2.929687-7.675781-2.929687-10.605469 0-2.929688 2.929688-2.929688 7.679688 0 10.605469zm0 0"/><path d="m234.882812 39.058594c1.464844 1.464844 3.386719 2.195312 5.304688 2.195312s3.839844-.730468 5.304688-2.195312c2.929687-2.929688 2.929687-7.679688 0-10.605469l-3.902344-3.90625c-2.933594-2.925781-7.679688-2.925781-10.609375 0-2.929688 2.929687-2.929688 7.679687 0 10.609375zm0 0"/><path d="m60.761719 126.832031h58.648437c3.800782 0 6.894532 3.09375 6.894532 6.898438 0 3.800781-3.09375 6.894531-6.894532 6.894531h-43.6875c-4.144531 0-7.5 3.359375-7.5 7.5 0 4.144531 3.355469 7.5 7.5 7.5h43.6875c12.074219 0 21.894532-9.820312 21.894532-21.894531s-9.820313-21.898438-21.894532-21.898438h-58.648437c-5.660157 0-10.261719-4.601562-10.261719-10.261719 0-5.65625 4.601562-10.257812 10.261719-10.257812h111.917969c4.140624 0 7.5-3.359375 7.5-7.5 0-4.144531-3.359376-7.503906-7.5-7.503906h-111.917969c-13.929688 0-25.261719 11.332031-25.261719 25.261718 0 13.929688 11.332031 25.261719 25.261719 25.261719zm0 0"/><path d="m381.582031 159.792969h81.917969c5.65625 0 10.261719 4.601562 10.261719 10.261719 0 5.65625-4.605469 10.257812-10.261719 10.257812h-37.648438c-12.074218 0-21.894531 9.824219-21.894531 21.898438 0 12.074218 9.820313 21.894531 21.894531 21.894531h22.6875c4.144532 0 7.5-3.355469 7.5-7.5 0-4.140625-3.355468-7.5-7.5-7.5h-22.6875c-3.800781 0-6.894531-3.09375-6.894531-6.894531 0-3.804688 3.09375-6.898438 6.894531-6.898438h37.648438c13.929688 0 25.261719-11.332031 25.261719-25.261719 0-13.925781-11.332031-25.257812-25.261719-25.257812h-81.917969c-4.144531 0-7.5 3.355469-7.5 7.5 0 4.140625 3.355469 7.5 7.5 7.5zm0 0"/><path d="m97.664062 364.152344c-3.800781 1.644531-5.550781 6.058594-3.90625 9.859375l1.980469 4.578125c1.222657 2.832031 3.984375 4.523437 6.886719 4.523437.992188 0 2.003906-.199219 2.976562-.617187 3.800782-1.644532 5.550782-6.058594 3.90625-9.859375l-1.980468-4.578125c-1.644532-3.800782-6.054688-5.554688-9.863282-3.90625zm0 0"/><path d="m119.929688 367.972656-2.019532 4.582032c-1.671875 3.789062.046875 8.21875 3.835938 9.886718.984375.4375 2.011718.640625 3.023437.640625 2.878907 0 5.628907-1.667969 6.863281-4.476562l2.023438-4.582031c1.671875-3.789063-.046875-8.21875-3.835938-9.886719-3.789062-1.675781-8.21875.042969-9.890624 3.835937zm0 0"/><path d="m345.214844 310.996094c-3.800782 1.644531-5.550782 6.058594-3.90625 9.863281l1.980468 4.574219c1.226563 2.832031 3.988282 4.523437 6.890626 4.523437.992187 0 2-.195312 2.972656-.617187 3.800781-1.644532 5.550781-6.058594 3.90625-9.859375l-1.980469-4.578125c-1.644531-3.800782-6.054687-5.546875-9.863281-3.90625zm0 0"/><path d="m367.480469 314.816406-2.019531 4.582032c-1.671876 3.792968.046874 8.21875 3.835937 9.890624.984375.433594 2.011719.640626 3.023437.640626 2.878907 0 5.628907-1.671876 6.863282-4.476563l2.023437-4.585937c1.671875-3.789063-.046875-8.214844-3.835937-9.886719-3.792969-1.675781-8.21875.046875-9.890625 3.835937zm0 0"/></svg>